<svg width="481" height="206" viewBox="0 0 481 206" fill="none" xmlns="http://www.w3.org/2000/svg">
<path d="M4.11674 159L32.1167 37.214C48.9825 29.5256 59.846 27.8323 76.1166 38.714C89.1166 26.214 116.089 32.2843 117.617 49.714L108.117 98.714H89.1166L97.1166 60.214C99.1166 49.714 92.6939 45.439 83.6166 49.714L81.1166 60.214L72.6166 98.714H53.1166L62.5 60.214C64.7069 51.4477 57.5989 44.8427 49.5 49.714L24.1166 152.214C21.3026 164.992 20.9602 169.563 29.6166 169.714L25.6167 184.5C4.12332 182.262 0.783348 173.717 4.11674 159Z" fill="black"/>
<path d="M195 98.714L210.5 37.214C227.366 29.5256 238.229 27.8323 254.5 38.714C267.5 26.214 294.472 32.2843 296 49.714L286.5 98.714H267.5L275.5 60.214C277.5 49.714 271.077 45.439 262 49.714L259.5 60.214L251 98.714H231.5L240 60.214C243.5 51.214 235.961 44.6869 227 49.714L214.5 98.714H195Z" fill="black"/>
<path d="M183 182.121L191.5 143.621L194 133.121C200.55 110.537 240.69 107.433 247.5 133.121L238 182.121H219L227 143.621C229 133.121 222.577 128.846 213.5 133.121L211 143.621L202.5 182.121H183Z" fill="black"/>
<path d="M170.31 156.592L179.122 118H159.622C159.622 118 150.243 158 149.122 164.5C148 171 131.799 173.142 133.122 164.5L142.622 118H123.622L113.122 162.5C111.122 182.092 134.194 191.523 152.31 178.592C151.998 180.78 152.394 181.991 155.31 184.092L171.81 182.092C169.247 174.385 168.025 169.819 170.31 156.592Z" fill="black"/>
<path d="M346 181.503H327L341 119.503C355.076 113.472 363.601 111.809 382 117.503L376.5 131.003C364.428 126.941 358.578 127.662 357.5 131.003L346 181.503Z" fill="black"/>
<path d="M433 117H452C439.929 148.647 431.892 164.36 414.5 187.5C397.909 207.46 387.996 207.247 370 201L376.5 187.5C390.441 192.311 394 187.567 400 178.5C391.977 157.259 391.499 142.874 391 117H410C409.99 133.62 411.447 142.596 414.5 158.5C422.627 144.374 426.842 135.666 433 117Z" fill="black"/>
<path d="M414.804 34.8383C408.847 29.8642 406.739 29.8719 401.804 34.8383L376.804 62.8383C374.275 67.3624 374.526 69.6193 376.804 73.3383L418.804 110.838C424.79 115.892 426.524 113.875 429.804 110.838L456.804 80.8383C459.138 77.3636 458.836 75.2057 454.304 70.8383L414.804 34.8383Z" fill="black"/>
<path d="M452.304 91.3383L456.304 86.8383C464.497 95.2925 470.964 97.0131 465.304 77.8383L453.804 40.3383C451.787 35.0177 449.599 33.4073 444.304 32.3383L394.804 23.3383C389.006 22.9936 391.304 28.3383 397.804 33.8383L392.804 38.8383C388.579 35.2123 384.938 29.023 384 23.3383C383.034 17.9709 387.473 13.9509 394.804 14.8383L444.304 23.3383C451.158 24.9298 454.108 22.1766 456.304 21.8383C458.5 21.5 467.354 24.3262 470 22C477.393 15.5 465.805 4.62439 461.304 13.3383C459.079 18.404 456.756 16.9653 456.304 12.8383C455.304 -0.161713 477.215 -0.396607 479.804 12.8383C481.804 24.8383 474.091 30.4413 460.304 29.8383L473.304 75.3383C477.256 88.5368 476.16 100.962 465.304 100.338C459.944 99.203 457.405 97.7912 452.304 91.3383Z" fill="black"/>
<path d="M183.5 77C185.53 62.756 192 36.9999 192 36.9999L171.5 48.5L164 81.5C160.129 88.4684 145.781 85.861 143.5 77C141.219 68.139 142.71 46.0154 171 48L190 35.5C119.65 19.7163 120.288 80.5559 133 94.5C140 103 158.717 103.387 167 94.5C166.851 97.3152 167.582 98.8345 169.5 101.5L186 99C183.211 95.6408 181.47 91.244 183.5 77Z" fill="black" stroke="black"/>
<path d="M187.5 40L175 46.5L168.353 36.8871C177.014 36.2295 171.733 31.5893 190.195 35.3345C190.225 35.2997 190.263 35.2758 190.308 35.2634C188.536 34.6236 191.05 35.1485 192 35.5C193.096 35.8167 192.771 36.047 192.5 36.5L190.5 38L189 39L187.5 40Z" fill="black"/>
<path d="M322.591 119.268C322.591 119.268 316.121 145.024 314.091 159.268C312.061 173.512 313.802 177.909 316.591 181.268L300.091 183.768C298.173 181.103 297.442 179.583 297.591 176.768C289.308 185.655 270.591 185.268 263.591 176.768C250.879 162.824 250.241 101.984 320.591 117.768L301.591 130.268C273.301 128.283 271.809 150.407 274.091 159.268C276.372 168.129 290.72 170.736 294.591 163.768L302.091 130.768L322.591 119.268L323.217 117L305 114.5L312.5 85L327.5 101.5L323.217 117L322.591 119.268Z" fill="black"/>
<path d="M322.591 119.268C322.591 119.268 316.121 145.024 314.091 159.268C312.061 173.512 313.802 177.909 316.591 181.268L300.091 183.768C298.173 181.103 297.442 179.583 297.591 176.768C289.308 185.655 270.591 185.268 263.591 176.768C250.879 162.824 250.241 101.984 320.591 117.768L301.591 130.268C273.301 128.283 271.809 150.407 274.091 159.268C276.372 168.129 290.72 170.736 294.591 163.768L302.091 130.768L322.591 119.268ZM322.591 119.268L323.217 117M323.217 117L327.5 101.5L312.5 85L305 114.5L323.217 117Z" stroke="black"/>
<path d="M323 117L319 116L318.5 117.5L322.5 118.5L323 117Z" fill="black"/>
<path d="M318.091 122.268L305.591 128.768L298.944 119.155C307.605 118.498 302.324 113.857 320.786 117.603C320.816 117.568 320.853 117.544 320.899 117.531C319.127 116.892 321.641 117.417 322.591 117.768C323.687 118.085 323.362 118.315 323.091 118.768L321.091 120.268L319.591 121.268L318.091 122.268Z" fill="black"/>
<path d="M363.091 77.268C365.121 63.024 371.591 37.2679 371.591 37.2679L351.091 48.768L343.591 81.768C339.72 88.7364 325.372 86.129 323.091 77.268C320.809 68.407 322.301 46.2834 350.591 48.268L369.591 35.768C299.241 19.9843 299.879 80.8239 312.591 94.768C319.591 103.268 338.308 103.655 346.591 94.768C346.442 97.5832 347.173 99.1025 349.091 101.768L365.591 99.268C362.802 95.9088 361.061 91.512 363.091 77.268Z" fill="black" stroke="black"/>
<path d="M367.091 40.268L354.591 46.768L347.944 37.1551C356.605 36.4975 351.324 31.8573 369.786 35.6025C369.816 35.5677 369.853 35.5438 369.899 35.5314C368.127 34.8916 370.641 35.4165 371.591 35.768C372.687 36.0846 372.362 36.315 372.091 36.768L370.091 38.268L368.591 39.268L367.091 40.268Z" fill="black"/>
<path d="M98.0908 158.268C100.121 144.024 106.591 118.268 106.591 118.268L86.0907 129.768L78.5907 162.768C74.7201 169.736 60.3722 167.129 58.0907 158.268C55.8093 149.407 57.3008 127.283 85.5907 129.268L104.591 116.768C34.2409 100.984 34.8788 161.824 47.5908 175.768C54.5908 184.268 73.3081 184.655 81.5908 175.768C81.4415 178.583 82.173 180.103 84.0908 182.768L100.591 180.268C97.8017 176.909 96.0608 172.512 98.0908 158.268Z" fill="black" stroke="black"/>
<path d="M102.091 121.268L89.5906 127.768L82.944 118.155C91.6048 117.498 86.3238 112.857 104.786 116.603C104.816 116.568 104.853 116.544 104.899 116.531C103.127 115.892 105.641 116.417 106.591 116.768C107.687 117.085 107.362 117.315 107.091 117.768L105.091 119.268L103.591 120.268L102.091 121.268Z" fill="black"/>
</svg>
